<?xml version="1.0" encoding="us-ascii" standalone="no"?><svg xmlns="http://www.w3.org/2000/svg" xmlns:xlink="http://www.w3.org/1999/xlink" contentStyleType="text/css" height="513.6px" preserveAspectRatio="none" style="width:697px;height:513px;background:#FFFFFF;" version="1.1" viewBox="0 0 697 513" width="697.8px" zoomAndPan="magnify"><defs/><g><!--class Drug--><g id="elem_Drug"><rect codeLine="3" fill="#F1F1F1" height="218.7352" id="Drug" rx="1.5" ry="1.5" style="stroke:#181818;stroke-width:0.3;" width="94.8" x="486.9" y="4.2"/><ellipse cx="522.45" cy="13.8" fill="#ADD1B2" rx="6.6" ry="6.6" style="stroke:#181818;stroke-width:0.6;"/><path d="M524.1094,11.325 Q524.2031,11.1938 524.3156,11.1281 Q524.4281,11.0625 524.5594,11.0625 Q524.7844,11.0625 524.925,11.2219 Q525.0656,11.3719 525.0656,11.7375 L525.0656,12.6094 Q525.0656,12.975 524.925,13.1344 Q524.7844,13.2938 524.5594,13.2938 Q524.3531,13.2938 524.2312,13.1719 Q524.1094,13.0594 524.0437,12.75 Q524.0156,12.5344 523.9031,12.4219 Q523.7063,12.1969 523.3406,12.0656 Q522.975,11.9344 522.6,11.9344 Q522.1406,11.9344 521.7563,12.1313 Q521.3813,12.3281 521.0813,12.7781 Q520.7906,13.2281 520.7906,13.8469 L520.7906,14.5031 Q520.7906,15.2437 521.325,15.7406 Q521.8594,16.2281 522.8156,16.2281 Q523.3781,16.2281 523.7719,16.0781 Q524.0063,15.9844 524.2594,15.7219 Q524.4187,15.5625 524.5031,15.5156 Q524.5969,15.4688 524.7188,15.4688 Q524.9156,15.4688 525.0656,15.6281 Q525.225,15.7781 525.225,15.9844 Q525.225,16.1906 525.0188,16.4344 Q524.7188,16.7813 524.2406,16.9781 Q523.5938,17.25 522.8156,17.25 Q521.9063,17.25 521.1844,16.875 Q520.5938,16.575 520.1813,15.9375 Q519.7688,15.2906 519.7688,14.5219 L519.7688,13.8281 Q519.7688,13.0313 520.1344,12.3469 Q520.5094,11.6531 521.1656,11.2875 Q521.8219,10.9125 522.5625,10.9125 Q523.0031,10.9125 523.3875,11.0156 Q523.7813,11.1094 524.1094,11.325 Z " fill="#000000"/><text fill="#000000" font-family="sans-serif" font-size="8.4" lengthAdjust="spacing" textLength="18.6" x="534.75" y="17.2781">Drug</text><line style="stroke:#181818;stroke-width:0.3;" x1="487.5" x2="581.1" y1="23.4" y2="23.4"/><rect fill="none" height="3.6" style="stroke:#C82930;stroke-width:0.6;" width="3.6" x="491.7" y="30.4863"/><text fill="#000000" font-family="sans-serif" font-size="8.4" lengthAdjust="spacing" textLength="52.2" x="498.9" y="34.8645">int catNumber</text><rect fill="none" height="3.6" style="stroke:#C82930;stroke-width:0.6;" width="3.6" x="491.7" y="41.659"/><text fill="#000000" font-family="sans-serif" font-size="8.4" lengthAdjust="spacing" textLength="58.2" x="498.9" y="46.0371">int drugNumber</text><rect fill="none" height="3.6" style="stroke:#C82930;stroke-width:0.6;" width="3.6" x="491.7" y="52.8316"/><text fill="#000000" font-family="sans-serif" font-size="8.4" lengthAdjust="spacing" textLength="35.4" x="498.9" y="57.2098">String dci</text><rect fill="none" height="3.6" style="stroke:#C82930;stroke-width:0.6;" width="3.6" x="491.7" y="64.0043"/><text fill="#000000" font-family="sans-serif" font-size="8.4" lengthAdjust="spacing" textLength="52.8" x="498.9" y="68.3824">String dosage</text><rect fill="none" height="3.6" style="stroke:#C82930;stroke-width:0.6;" width="3.6" x="491.7" y="75.177"/><text fill="#000000" font-family="sans-serif" font-size="8.4" lengthAdjust="spacing" textLength="41.4" x="498.9" y="79.5551">String form</text><rect fill="none" height="3.6" style="stroke:#C82930;stroke-width:0.6;" width="3.6" x="491.7" y="86.3496"/><text fill="#000000" font-family="sans-serif" font-size="8.4" lengthAdjust="spacing" textLength="61.2" x="498.9" y="90.7277">String reference</text><rect fill="none" height="3.6" style="stroke:#C82930;stroke-width:0.6;" width="3.6" x="491.7" y="97.5223"/><text fill="#000000" font-family="sans-serif" font-size="8.4" lengthAdjust="spacing" textLength="33.6" x="498.9" y="101.9004">int cases</text><rect fill="none" height="3.6" style="stroke:#C82930;stroke-width:0.6;" width="3.6" x="491.7" y="108.6949"/><text fill="#000000" font-family="sans-serif" font-size="8.4" lengthAdjust="spacing" textLength="31.8" x="498.9" y="113.073">int posts</text><rect fill="none" height="3.6" style="stroke:#C82930;stroke-width:0.6;" width="3.6" x="491.7" y="119.8676"/><text fill="#000000" font-family="sans-serif" font-size="8.4" lengthAdjust="spacing" textLength="39.6" x="498.9" y="124.2457">int centers</text><rect fill="none" height="3.6" style="stroke:#C82930;stroke-width:0.6;" width="3.6" x="491.7" y="131.0402"/><text fill="#000000" font-family="sans-serif" font-size="8.4" lengthAdjust="spacing" textLength="30" x="498.9" y="135.4184">int eps1</text><rect fill="none" height="3.6" style="stroke:#C82930;stroke-width:0.6;" width="3.6" x="491.7" y="142.2129"/><text fill="#000000" font-family="sans-serif" font-size="8.4" lengthAdjust="spacing" textLength="30" x="498.9" y="146.591">int eps2</text><rect fill="none" height="3.6" style="stroke:#C82930;stroke-width:0.6;" width="3.6" x="491.7" y="153.3855"/><text fill="#000000" font-family="sans-serif" font-size="8.4" lengthAdjust="spacing" textLength="30" x="498.9" y="157.7637">int eps3</text><rect fill="none" height="3.6" style="stroke:#C82930;stroke-width:0.6;" width="3.6" x="491.7" y="164.5582"/><text fill="#000000" font-family="sans-serif" font-size="8.4" lengthAdjust="spacing" textLength="63" x="498.9" y="168.9363">String createdBy</text><rect fill="none" height="3.6" style="stroke:#C82930;stroke-width:0.6;" width="3.6" x="491.7" y="175.7309"/><text fill="#000000" font-family="sans-serif" font-size="8.4" lengthAdjust="spacing" textLength="79.2" x="498.9" y="180.109">String lastUpdatedBy</text><rect fill="none" height="3.6" style="stroke:#C82930;stroke-width:0.6;" width="3.6" x="491.7" y="186.9035"/><text fill="#000000" font-family="sans-serif" font-size="8.4" lengthAdjust="spacing" textLength="34.2" x="498.9" y="191.2816">int status</text><line style="stroke:#181818;stroke-width:0.3;" x1="487.5" x2="581.1" y1="195.7898" y2="195.7898"/><ellipse cx="493.5" cy="204.6762" fill="#84BE84" rx="1.8" ry="1.8" style="stroke:#038048;stroke-width:0.6;"/><text fill="#000000" font-family="sans-serif" font-size="8.4" lengthAdjust="spacing" textLength="32.4" x="498.9" y="207.2543">getters()</text><ellipse cx="493.5" cy="215.8488" fill="#84BE84" rx="1.8" ry="1.8" style="stroke:#038048;stroke-width:0.6;"/><text fill="#000000" font-family="sans-serif" font-size="8.4" lengthAdjust="spacing" textLength="31.8" x="498.9" y="218.427">setters()</text></g><!--class AuditLog--><g id="elem_AuditLog"><rect codeLine="23" fill="#F1F1F1" height="95.8359" id="AuditLog" rx="1.5" ry="1.5" style="stroke:#181818;stroke-width:0.3;" width="90.6" x="603" y="65.7"/><ellipse cx="629.01" cy="75.3" fill="#ADD1B2" rx="6.6" ry="6.6" style="stroke:#181818;stroke-width:0.6;"/><path d="M630.6694,72.825 Q630.7631,72.6938 630.8756,72.6281 Q630.9881,72.5625 631.1194,72.5625 Q631.3444,72.5625 631.485,72.7219 Q631.6256,72.8719 631.6256,73.2375 L631.6256,74.1094 Q631.6256,74.475 631.485,74.6344 Q631.3444,74.7938 631.1194,74.7938 Q630.9131,74.7938 630.7912,74.6719 Q630.6694,74.5594 630.6037,74.25 Q630.5756,74.0344 630.4631,73.9219 Q630.2662,73.6969 629.9006,73.5656 Q629.535,73.4344 629.16,73.4344 Q628.7006,73.4344 628.3163,73.6313 Q627.9413,73.8281 627.6412,74.2781 Q627.3506,74.7281 627.3506,75.3469 L627.3506,76.0031 Q627.3506,76.7437 627.885,77.2406 Q628.4194,77.7281 629.3756,77.7281 Q629.9381,77.7281 630.3319,77.5781 Q630.5663,77.4844 630.8194,77.2219 Q630.9787,77.0625 631.0631,77.0156 Q631.1569,76.9688 631.2788,76.9688 Q631.4756,76.9688 631.6256,77.1281 Q631.785,77.2781 631.785,77.4844 Q631.785,77.6906 631.5787,77.9344 Q631.2788,78.2813 630.8006,78.4781 Q630.1538,78.75 629.3756,78.75 Q628.4663,78.75 627.7444,78.375 Q627.1538,78.075 626.7412,77.4375 Q626.3287,76.7906 626.3287,76.0219 L626.3287,75.3281 Q626.3287,74.5313 626.6944,73.8469 Q627.0694,73.1531 627.7256,72.7875 Q628.3819,72.4125 629.1225,72.4125 Q629.5631,72.4125 629.9475,72.5156 Q630.3413,72.6094 630.6694,72.825 Z " fill="#000000"/><text fill="#000000" font-family="sans-serif" font-size="8.4" lengthAdjust="spacing" textLength="33.6" x="641.19" y="78.7781">AuditLog</text><line style="stroke:#181818;stroke-width:0.3;" x1="603.6" x2="693" y1="84.9" y2="84.9"/><rect fill="none" height="3.6" style="stroke:#C82930;stroke-width:0.6;" width="3.6" x="607.8" y="91.9863"/><text fill="#000000" font-family="sans-serif" font-size="8.4" lengthAdjust="spacing" textLength="18" x="615" y="96.3645">int id</text><rect fill="none" height="3.6" style="stroke:#C82930;stroke-width:0.6;" width="3.6" x="607.8" y="103.159"/><text fill="#000000" font-family="sans-serif" font-size="8.4" lengthAdjust="spacing" textLength="34.8" x="615" y="107.5371">int userId</text><rect fill="none" height="3.6" style="stroke:#C82930;stroke-width:0.6;" width="3.6" x="607.8" y="114.3316"/><text fill="#000000" font-family="sans-serif" font-size="8.4" lengthAdjust="spacing" textLength="75" x="615" y="118.7098">LocalDateTime time</text><rect fill="none" height="3.6" style="stroke:#C82930;stroke-width:0.6;" width="3.6" x="607.8" y="125.5043"/><text fill="#000000" font-family="sans-serif" font-size="8.4" lengthAdjust="spacing" textLength="47.4" x="615" y="129.8824">String action</text><line style="stroke:#181818;stroke-width:0.3;" x1="603.6" x2="693" y1="134.3906" y2="134.3906"/><ellipse cx="609.6" cy="143.277" fill="#84BE84" rx="1.8" ry="1.8" style="stroke:#038048;stroke-width:0.6;"/><text fill="#000000" font-family="sans-serif" font-size="8.4" lengthAdjust="spacing" textLength="32.4" x="615" y="145.8551">getters()</text><ellipse cx="609.6" cy="154.4496" fill="#84BE84" rx="1.8" ry="1.8" style="stroke:#038048;stroke-width:0.6;"/><text fill="#000000" font-family="sans-serif" font-size="8.4" lengthAdjust="spacing" textLength="31.8" x="615" y="157.0277">setters()</text></g><!--class DrugController--><g id="elem_DrugController"><rect codeLine="33" fill="#F1F1F1" height="95.8359" id="DrugController" rx="1.5" ry="1.5" style="stroke:#181818;stroke-width:0.3;" width="183" x="133.8" y="65.7"/><ellipse cx="194.85" cy="75.3" fill="#ADD1B2" rx="6.6" ry="6.6" style="stroke:#181818;stroke-width:0.6;"/><path d="M196.5094,72.825 Q196.6031,72.6938 196.7156,72.6281 Q196.8281,72.5625 196.9594,72.5625 Q197.1844,72.5625 197.325,72.7219 Q197.4656,72.8719 197.4656,73.2375 L197.4656,74.1094 Q197.4656,74.475 197.325,74.6344 Q197.1844,74.7938 196.9594,74.7938 Q196.7531,74.7938 196.6313,74.6719 Q196.5094,74.5594 196.4438,74.25 Q196.4156,74.0344 196.3031,73.9219 Q196.1063,73.6969 195.7406,73.5656 Q195.375,73.4344 195,73.4344 Q194.5406,73.4344 194.1563,73.6313 Q193.7813,73.8281 193.4813,74.2781 Q193.1906,74.7281 193.1906,75.3469 L193.1906,76.0031 Q193.1906,76.7437 193.725,77.2406 Q194.2594,77.7281 195.2156,77.7281 Q195.7781,77.7281 196.1719,77.5781 Q196.4063,77.4844 196.6594,77.2219 Q196.8188,77.0625 196.9031,77.0156 Q196.9969,76.9688 197.1188,76.9688 Q197.3156,76.9688 197.4656,77.1281 Q197.625,77.2781 197.625,77.4844 Q197.625,77.6906 197.4188,77.9344 Q197.1188,78.2813 196.6406,78.4781 Q195.9938,78.75 195.2156,78.75 Q194.3063,78.75 193.5844,78.375 Q192.9938,78.075 192.5812,77.4375 Q192.1688,76.7906 192.1688,76.0219 L192.1688,75.3281 Q192.1688,74.5313 192.5344,73.8469 Q192.9094,73.1531 193.5656,72.7875 Q194.2219,72.4125 194.9625,72.4125 Q195.4031,72.4125 195.7875,72.5156 Q196.1813,72.6094 196.5094,72.825 Z " fill="#000000"/><text fill="#000000" font-family="sans-serif" font-size="8.4" lengthAdjust="spacing" textLength="55.8" x="207.15" y="78.7781">DrugController</text><line style="stroke:#181818;stroke-width:0.3;" x1="134.4" x2="316.2" y1="84.9" y2="84.9"/><rect fill="none" height="3.6" style="stroke:#C82930;stroke-width:0.6;" width="3.6" x="138.6" y="91.9863"/><text fill="#000000" font-family="sans-serif" font-size="8.4" lengthAdjust="spacing" textLength="94.8" x="145.8" y="96.3645">DrugService drugService</text><line style="stroke:#181818;stroke-width:0.3;" x1="134.4" x2="316.2" y1="100.8727" y2="100.8727"/><ellipse cx="140.4" cy="109.759" fill="#84BE84" rx="1.8" ry="1.8" style="stroke:#038048;stroke-width:0.6;"/><text fill="#000000" font-family="sans-serif" font-size="8.4" lengthAdjust="spacing" textLength="167.4" x="145.8" y="112.3371">getAllDrugs() : ResponseEntity&lt;List&lt;Drug&gt;&gt;</text><ellipse cx="140.4" cy="120.9316" fill="#84BE84" rx="1.8" ry="1.8" style="stroke:#038048;stroke-width:0.6;"/><text fill="#000000" font-family="sans-serif" font-size="8.4" lengthAdjust="spacing" textLength="156.6" x="145.8" y="123.5098">getDrugById(int) : ResponseEntity&lt;Drug&gt;</text><ellipse cx="140.4" cy="132.1043" fill="#84BE84" rx="1.8" ry="1.8" style="stroke:#038048;stroke-width:0.6;"/><text fill="#000000" font-family="sans-serif" font-size="8.4" lengthAdjust="spacing" textLength="152.4" x="145.8" y="134.6824">addDrug(Drug) : ResponseEntity&lt;Drug&gt;</text><ellipse cx="140.4" cy="143.277" fill="#84BE84" rx="1.8" ry="1.8" style="stroke:#038048;stroke-width:0.6;"/><text fill="#000000" font-family="sans-serif" font-size="8.4" lengthAdjust="spacing" textLength="164.4" x="145.8" y="145.8551">updateDrug(Drug) : ResponseEntity&lt;Drug&gt;</text><ellipse cx="140.4" cy="154.4496" fill="#84BE84" rx="1.8" ry="1.8" style="stroke:#038048;stroke-width:0.6;"/><text fill="#000000" font-family="sans-serif" font-size="8.4" lengthAdjust="spacing" textLength="150" x="145.8" y="157.0277">deleteDrug(int) : ResponseEntity&lt;Void&gt;</text></g><!--class DrugService--><g id="elem_DrugService"><rect codeLine="42" fill="#F1F1F1" height="118.1812" id="DrugService" rx="1.5" ry="1.5" style="stroke:#181818;stroke-width:0.3;" width="166.2" x="142.2" y="270.6"/><ellipse cx="199.35" cy="280.2" fill="#ADD1B2" rx="6.6" ry="6.6" style="stroke:#181818;stroke-width:0.6;"/><path d="M201.0094,277.725 Q201.1031,277.5938 201.2156,277.5281 Q201.3281,277.4625 201.4594,277.4625 Q201.6844,277.4625 201.825,277.6219 Q201.9656,277.7719 201.9656,278.1375 L201.9656,279.0094 Q201.9656,279.375 201.825,279.5344 Q201.6844,279.6937 201.4594,279.6937 Q201.2531,279.6937 201.1313,279.5719 Q201.0094,279.4594 200.9438,279.15 Q200.9156,278.9344 200.8031,278.8219 Q200.6063,278.5969 200.2406,278.4656 Q199.875,278.3344 199.5,278.3344 Q199.0406,278.3344 198.6563,278.5313 Q198.2813,278.7281 197.9813,279.1781 Q197.6906,279.6281 197.6906,280.2469 L197.6906,280.9031 Q197.6906,281.6438 198.225,282.1406 Q198.7594,282.6281 199.7156,282.6281 Q200.2781,282.6281 200.6719,282.4781 Q200.9063,282.3844 201.1594,282.1219 Q201.3188,281.9625 201.4031,281.9156 Q201.4969,281.8688 201.6188,281.8688 Q201.8156,281.8688 201.9656,282.0281 Q202.125,282.1781 202.125,282.3844 Q202.125,282.5906 201.9188,282.8344 Q201.6188,283.1813 201.1406,283.3781 Q200.4938,283.65 199.7156,283.65 Q198.8063,283.65 198.0844,283.275 Q197.4938,282.975 197.0812,282.3375 Q196.6688,281.6906 196.6688,280.9219 L196.6688,280.2281 Q196.6688,279.4313 197.0344,278.7469 Q197.4094,278.0531 198.0656,277.6875 Q198.7219,277.3125 199.4625,277.3125 Q199.9031,277.3125 200.2875,277.4156 Q200.6813,277.5094 201.0094,277.725 Z " fill="#000000"/><text fill="#000000" font-family="sans-serif" font-size="8.4" lengthAdjust="spacing" textLength="46.8" x="211.65" y="283.6781">DrugService</text><line style="stroke:#181818;stroke-width:0.3;" x1="142.8" x2="307.8" y1="289.8" y2="289.8"/><rect fill="none" height="3.6" style="stroke:#C82930;stroke-width:0.6;" width="3.6" x="147" y="296.8863"/><text fill="#000000" font-family="sans-serif" font-size="8.4" lengthAdjust="spacing" textLength="120" x="154.2" y="301.2645">DrugRepository drugRepository</text><rect fill="none" height="3.6" style="stroke:#C82930;stroke-width:0.6;" width="3.6" x="147" y="308.059"/><text fill="#000000" font-family="sans-serif" font-size="8.4" lengthAdjust="spacing" textLength="150.6" x="154.2" y="312.4371">AuditLogRepository auditLogRepository</text><line style="stroke:#181818;stroke-width:0.3;" x1="142.8" x2="307.8" y1="316.9453" y2="316.9453"/><ellipse cx="148.8" cy="325.8316" fill="#84BE84" rx="1.8" ry="1.8" style="stroke:#038048;stroke-width:0.6;"/><text fill="#000000" font-family="sans-serif" font-size="8.4" lengthAdjust="spacing" textLength="98.4" x="154.2" y="328.4098">getAllDrugs() : List&lt;Drug&gt;</text><ellipse cx="148.8" cy="337.0043" fill="#84BE84" rx="1.8" ry="1.8" style="stroke:#038048;stroke-width:0.6;"/><text fill="#000000" font-family="sans-serif" font-size="8.4" lengthAdjust="spacing" textLength="87.6" x="154.2" y="339.5824">getDrugById(int) : Drug</text><ellipse cx="148.8" cy="348.177" fill="#84BE84" rx="1.8" ry="1.8" style="stroke:#038048;stroke-width:0.6;"/><text fill="#000000" font-family="sans-serif" font-size="8.4" lengthAdjust="spacing" textLength="83.4" x="154.2" y="350.7551">addDrug(Drug) : Drug</text><ellipse cx="148.8" cy="359.3496" fill="#84BE84" rx="1.8" ry="1.8" style="stroke:#038048;stroke-width:0.6;"/><text fill="#000000" font-family="sans-serif" font-size="8.4" lengthAdjust="spacing" textLength="95.4" x="154.2" y="361.9277">updateDrug(Drug) : Drug</text><ellipse cx="148.8" cy="370.5223" fill="#84BE84" rx="1.8" ry="1.8" style="stroke:#038048;stroke-width:0.6;"/><text fill="#000000" font-family="sans-serif" font-size="8.4" lengthAdjust="spacing" textLength="79.8" x="154.2" y="373.1004">deleteDrug(int) : void</text><ellipse cx="148.8" cy="381.6949" fill="#84BE84" rx="1.8" ry="1.8" style="stroke:#038048;stroke-width:0.6;"/><text fill="#000000" font-family="sans-serif" font-size="8.4" lengthAdjust="spacing" textLength="99.6" x="154.2" y="384.273">logAction(String, int) : void</text></g><!--class DrugRepository--><g id="elem_DrugRepository"><rect codeLine="53" fill="#F1F1F1" height="73.4906" id="DrugRepository" rx="1.5" ry="1.5" style="stroke:#181818;stroke-width:0.3;" width="127.8" x="4.2" y="436.2"/><ellipse cx="35.85" cy="445.8" fill="#B4A7E5" rx="6.6" ry="6.6" style="stroke:#181818;stroke-width:0.6;"/><path d="M36.4219,443.7844 L36.4219,447.7781 L37.4531,447.7781 Q37.8188,447.7781 37.9781,447.9188 Q38.1375,448.0594 38.1375,448.2938 Q38.1375,448.5188 37.9781,448.6594 Q37.8188,448.8 37.4531,448.8 L34.3688,448.8 Q34.0031,448.8 33.8438,448.6594 Q33.6844,448.5188 33.6844,448.2844 Q33.6844,448.0594 33.8438,447.9188 Q34.0031,447.7781 34.3688,447.7781 L35.4,447.7781 L35.4,443.7844 L34.3688,443.7844 Q34.0031,443.7844 33.8438,443.6438 Q33.6844,443.5031 33.6844,443.2688 Q33.6844,443.0438 33.8438,442.9031 Q34.0031,442.7625 34.3688,442.7625 L37.4531,442.7625 Q37.8188,442.7625 37.9781,442.9031 Q38.1375,443.0438 38.1375,443.2688 Q38.1375,443.5031 37.9781,443.6438 Q37.8188,443.7844 37.4531,443.7844 L36.4219,443.7844 Z " fill="#000000"/><text fill="#000000" font-family="sans-serif" font-size="8.4" font-style="italic" lengthAdjust="spacing" textLength="59.4" x="48.15" y="449.2781">DrugRepository</text><line style="stroke:#181818;stroke-width:0.3;" x1="4.8" x2="131.4" y1="455.4" y2="455.4"/><line style="stroke:#181818;stroke-width:0.3;" x1="4.8" x2="131.4" y1="460.2" y2="460.2"/><ellipse cx="10.8" cy="469.0863" fill="#84BE84" rx="1.8" ry="1.8" style="stroke:#038048;stroke-width:0.6;"/><text fill="#000000" font-family="sans-serif" font-size="8.4" lengthAdjust="spacing" textLength="112.2" x="16.2" y="471.6645">findById(int) : Optional&lt;Drug&gt;</text><ellipse cx="10.8" cy="480.259" fill="#84BE84" rx="1.8" ry="1.8" style="stroke:#038048;stroke-width:0.6;"/><text fill="#000000" font-family="sans-serif" font-size="8.4" lengthAdjust="spacing" textLength="77.4" x="16.2" y="482.8371">findAll() : List&lt;Drug&gt;</text><ellipse cx="10.8" cy="491.4316" fill="#84BE84" rx="1.8" ry="1.8" style="stroke:#038048;stroke-width:0.6;"/><text fill="#000000" font-family="sans-serif" font-size="8.4" lengthAdjust="spacing" textLength="68.4" x="16.2" y="494.0098">save(Drug) : Drug</text><ellipse cx="10.8" cy="502.6043" fill="#84BE84" rx="1.8" ry="1.8" style="stroke:#038048;stroke-width:0.6;"/><text fill="#000000" font-family="sans-serif" font-size="8.4" lengthAdjust="spacing" textLength="77.4" x="16.2" y="505.1824">deleteById(int) : void</text></g><!--class AuditLogRepository--><g id="elem_AuditLogRepository"><rect codeLine="60" fill="#F1F1F1" height="39.9727" id="AuditLogRepository" rx="1.5" ry="1.5" style="stroke:#181818;stroke-width:0.3;" width="114" x="325.5" y="452.7"/><ellipse cx="343.68" cy="462.3" fill="#B4A7E5" rx="6.6" ry="6.6" style="stroke:#181818;stroke-width:0.6;"/><path d="M344.2519,460.2844 L344.2519,464.2781 L345.2831,464.2781 Q345.6487,464.2781 345.8081,464.4188 Q345.9675,464.5594 345.9675,464.7938 Q345.9675,465.0187 345.8081,465.1594 Q345.6487,465.3 345.2831,465.3 L342.1987,465.3 Q341.8331,465.3 341.6738,465.1594 Q341.5144,465.0187 341.5144,464.7844 Q341.5144,464.5594 341.6738,464.4188 Q341.8331,464.2781 342.1987,464.2781 L343.23,464.2781 L343.23,460.2844 L342.1987,460.2844 Q341.8331,460.2844 341.6738,460.1438 Q341.5144,460.0031 341.5144,459.7688 Q341.5144,459.5438 341.6738,459.4031 Q341.8331,459.2625 342.1987,459.2625 L345.2831,459.2625 Q345.6487,459.2625 345.8081,459.4031 Q345.9675,459.5438 345.9675,459.7688 Q345.9675,460.0031 345.8081,460.1438 Q345.6487,460.2844 345.2831,460.2844 L344.2519,460.2844 Z " fill="#000000"/><text fill="#000000" font-family="sans-serif" font-size="8.4" font-style="italic" lengthAdjust="spacing" textLength="74.4" x="354.12" y="465.7781">AuditLogRepository</text><line style="stroke:#181818;stroke-width:0.3;" x1="326.1" x2="438.9" y1="471.9" y2="471.9"/><line style="stroke:#181818;stroke-width:0.3;" x1="326.1" x2="438.9" y1="476.7" y2="476.7"/><ellipse cx="332.1" cy="485.5863" fill="#84BE84" rx="1.8" ry="1.8" style="stroke:#038048;stroke-width:0.6;"/><text fill="#000000" font-family="sans-serif" font-size="8.4" lengthAdjust="spacing" textLength="98.4" x="337.5" y="488.1645">save(AuditLog) : AuditLog</text></g><g id="elem_GMN11"><path d="M337.8,100.2 L337.8,111.3 L316.944,113.7 L337.8,116.1 L337.8,126.9492 A0,0 0 0 0 337.8,126.9492 L465.6,126.9492 A0,0 0 0 0 465.6,126.9492 L465.6,106.2 L459.6,100.2 L337.8,100.2 A0,0 0 0 0 337.8,100.2 " fill="#FEFFDD" style="stroke:#181818;stroke-width:0.3;"/><path d="M459.6,100.2 L459.6,106.2 L465.6,106.2 L459.6,100.2 " fill="#FEFFDD" style="stroke:#181818;stroke-width:0.3;"/><text fill="#000000" font-family="sans-serif" font-size="7.8" lengthAdjust="spacing" textLength="83.4" x="341.4" y="111.617">G&#232;re les requ&#234;tes HTTP</text><text fill="#000000" font-family="sans-serif" font-size="7.8" lengthAdjust="spacing" textLength="115.2" x="341.4" y="121.9916">et communique avec DrugService</text></g><g id="elem_GMN14"><path d="M329.7,316.2 L329.7,327.3 L308.526,329.7 L329.7,332.1 L329.7,342.9492 A0,0 0 0 0 329.7,342.9492 L438.9,342.9492 A0,0 0 0 0 438.9,342.9492 L438.9,322.2 L432.9,316.2 L329.7,316.2 A0,0 0 0 0 329.7,316.2 " fill="#FEFFDD" style="stroke:#181818;stroke-width:0.3;"/><path d="M432.9,316.2 L432.9,322.2 L438.9,322.2 L432.9,316.2 " fill="#FEFFDD" style="stroke:#181818;stroke-width:0.3;"/><text fill="#000000" font-family="sans-serif" font-size="7.8" lengthAdjust="spacing" textLength="91.8" x="333.3" y="327.617">Logique m&#233;tier, interaction</text><text fill="#000000" font-family="sans-serif" font-size="7.8" lengthAdjust="spacing" textLength="96.6" x="333.3" y="337.9916">avec les repositories et logs</text></g><g id="elem_GMN17"><path d="M153.3,464.7 L153.3,470.4 L132.012,472.8 L153.3,475.2 L153.3,481.0746 A0,0 0 0 0 153.3,481.0746 L304.5,481.0746 A0,0 0 0 0 304.5,481.0746 L304.5,470.7 L298.5,464.7 L153.3,464.7 A0,0 0 0 0 153.3,464.7 " fill="#FEFFDD" style="stroke:#181818;stroke-width:0.3;"/><path d="M298.5,464.7 L298.5,470.7 L304.5,470.7 L298.5,464.7 " fill="#FEFFDD" style="stroke:#181818;stroke-width:0.3;"/><text fill="#000000" font-family="sans-serif" font-size="7.8" lengthAdjust="spacing" textLength="138.6" x="156.9" y="476.117">Interface pour l'acc&#232;s aux donn&#233;es Drug</text></g><g id="elem_GMN20"><path d="M460.5,464.7 L460.5,470.4 L439.5,472.8 L460.5,475.2 L460.5,481.0746 A0,0 0 0 0 460.5,481.0746 L626.1,481.0746 A0,0 0 0 0 626.1,481.0746 L626.1,470.7 L620.1,464.7 L460.5,464.7 A0,0 0 0 0 460.5,464.7 " fill="#FEFFDD" style="stroke:#181818;stroke-width:0.3;"/><path d="M620.1,464.7 L620.1,470.7 L626.1,470.7 L620.1,464.7 " fill="#FEFFDD" style="stroke:#181818;stroke-width:0.3;"/><text fill="#000000" font-family="sans-serif" font-size="7.8" lengthAdjust="spacing" textLength="153" x="464.1" y="476.117">Interface pour l'acc&#232;s aux donn&#233;es AuditLog</text></g><!--link DrugController to DrugService--><g id="link_DrugController_DrugService"><path codeLine="65" d="M225.3,161.706 C225.3,192.828 225.3,233.844 225.3,267.486 " fill="none" id="DrugController-to-DrugService" style="stroke:#181818;stroke-width:0.6;"/><polygon fill="#181818" points="225.3,270.51,227.7,265.11,225.3,267.51,222.9,265.11,225.3,270.51" style="stroke:#181818;stroke-width:0.6;"/><text fill="#000000" font-family="sans-serif" font-size="7.8" lengthAdjust="spacing" textLength="20.4" x="225.9" y="250.217">utilise</text></g><!--link DrugService to DrugRepository--><g id="link_DrugService_DrugRepository"><path codeLine="66" d="M160.452,388.836 C143.526,404.118 125.718,420.192 110.304,434.1 " fill="none" id="DrugService-to-DrugRepository" style="stroke:#181818;stroke-width:0.6;"/><polygon fill="#181818" points="108.048,436.14,113.6599,434.2888,110.2698,434.1241,110.4345,430.734,108.048,436.14" style="stroke:#181818;stroke-width:0.6;"/><text fill="#000000" font-family="sans-serif" font-size="7.8" lengthAdjust="spacing" textLength="20.4" x="138.3" y="415.817">utilise</text></g><!--link DrugService to AuditLogRepository--><g id="link_DrugService_AuditLogRepository"><path codeLine="67" d="M290.148,388.836 C314.268,410.61 340.17,433.992 358.386,450.432 " fill="none" id="DrugService-to-AuditLogRepository" style="stroke:#181818;stroke-width:0.6;"/><polygon fill="#181818" points="360.792,452.604,358.3941,447.2031,358.566,450.5928,355.1762,450.7647,360.792,452.604" style="stroke:#181818;stroke-width:0.6;"/><text fill="#000000" font-family="sans-serif" font-size="7.8" lengthAdjust="spacing" textLength="20.4" x="323.1" y="415.817">utilise</text></g><!--SRC=[ZLN1RXen4Btp5Rv1bUJGzXP5ID1KBLNKHa1xoiMnXuqbOsziRrGKzNz2VsD_h3ExXhLXKU60FEFnp9ldvzaXkwstAsLKKDOm2Pw12IhKMy_u2uZ6musnWLE0Pz_k9mEXkVVirbK5Unqm_5qnPG8JF7olre_W4f_4eCov24wPWacX3XpMym9otygwTUvni087Ha1MreDFxDBwaDe26mANUg3qxtFpGsv-pAiA1po0d6voDx8GVfOosw847hcgsdeNh810rKVlekttzfz1979IIHNkR4wcaebHUN2pdUFE2gvliUfIhO45_CjXSK4tTKxvuT7T2xj6-hW9dYtA9jlKsj0fOLrlmvEbbSGLLrhNMoI_4yGdQuApMeFRTqFk1RWN9Q2HGrnt02TQKmo2OjTi3hv4dS5dKk7cvaxvS4Exut5tWEpfPYP7o4tFcIOyHdCfoHpHttz2g-OgpusMe256zwFuPPKSTvUSif0oCmSaN0NhDWqvdHbZTk98ulYHwmIN7NcdkIFx15V9LWytoUun5oyswlU2QLjC6aMEMdrUiZG6-L7qF5SSUJdWupLcG8NA5FAFaj9ndRL6GTXyVzyU1NmQU9hx65JF1RocQNVxT7gtRX_N77GScZY1731D3up4G4CsDEQ-Z1ySl9whgt6ccMjM1QMLXq7gtKKbu4u7zdJI1IFUIJBcIriv0klKIY4QmkgwTa9qD8BdZvY1FXW3F0xCgU8fCBiw70VNx4lz5bbmy5pLVmEklYwNzmy64-BaMLT6FLVGJfi4V4_UZXNifpb4amcHNhQKjZFmmJIfsegnPnN9jqKVteoQsLu33Hjwo8Met_1pMFt6pvKnDFfQDUM9Uda-AzbUF_y0]--></g></svg>